<?xml version="1.0" encoding="UTF-8" standalone="no"?>
<!DOCTYPE svg PUBLIC "-//W3C//DTD SVG 1.1//EN"
 "http://www.w3.org/Graphics/SVG/1.1/DTD/svg11.dtd">
<!-- Generated by graphviz version 8.0.5 (20230430.1635)
 -->
<!-- Pages: 1 -->
<svg width="1018pt" height="274pt"
 viewBox="0.00 0.00 1018.30 274.00" xmlns="http://www.w3.org/2000/svg" xmlns:xlink="http://www.w3.org/1999/xlink">
<g id="graph0" class="graph" transform="scale(1 1) rotate(0) translate(4 270)">
<polygon fill="white" stroke="none" points="-4,4 -4,-270 1014.3,-270 1014.3,4 -4,4"/>
<!-- 310399309 -->
<g id="node1" class="node">
<title>310399309</title>
<polygon fill="none" stroke="black" points="917.05,-70.5 917.05,-122.5 1010.3,-122.5 1010.3,-70.5 917.05,-70.5"/>
<text text-anchor="middle" x="963.67" y="-105.2" font-family="Times,serif" font-size="14.00">Relu()</text>
<polyline fill="none" stroke="black" points="917.05,-96.5 1010.3,-96.5"/>
<text text-anchor="middle" x="963.67" y="-79.2" font-family="Times,serif" font-size="14.00">value 0,1025</text>
</g>
<!-- 310399309ReLU -->
<g id="node2" class="node">
<title>310399309ReLU</title>
<ellipse fill="none" stroke="black" cx="846.4" cy="-96.5" rx="34.65" ry="18.38"/>
<text text-anchor="middle" x="846.4" y="-92.2" font-family="Times,serif" font-size="14.00">ReLU</text>
</g>
<!-- 310399309ReLU&#45;&gt;310399309 -->
<g id="edge1" class="edge">
<title>310399309ReLU&#45;&gt;310399309</title>
<path fill="none" stroke="black" d="M881.36,-96.5C889.3,-96.5 897.96,-96.5 906.58,-96.5"/>
<polygon fill="black" stroke="black" points="906.41,-100 916.41,-96.5 906.41,-93 906.41,-100"/>
</g>
<!-- 1152625911 -->
<g id="node3" class="node">
<title>1152625911</title>
<polygon fill="none" stroke="black" points="682.5,-70.5 682.5,-122.5 775.75,-122.5 775.75,-70.5 682.5,-70.5"/>
<text text-anchor="middle" x="729.12" y="-105.2" font-family="Times,serif" font-size="14.00"> </text>
<polyline fill="none" stroke="black" points="682.5,-96.5 775.75,-96.5"/>
<text text-anchor="middle" x="729.12" y="-79.2" font-family="Times,serif" font-size="14.00">value 0,1025</text>
</g>
<!-- 1152625911&#45;&gt;310399309ReLU -->
<g id="edge6" class="edge">
<title>1152625911&#45;&gt;310399309ReLU</title>
<path fill="none" stroke="black" d="M775.68,-96.5C783.9,-96.5 792.47,-96.5 800.66,-96.5"/>
<polygon fill="black" stroke="black" points="800.55,-100 810.55,-96.5 800.55,-93 800.55,-100"/>
</g>
<!-- 1152625911+ -->
<g id="node4" class="node">
<title>1152625911+</title>
<ellipse fill="none" stroke="black" cx="619.5" cy="-96.5" rx="27" ry="18.38"/>
<text text-anchor="middle" x="619.5" y="-92.2" font-family="Times,serif" font-size="14.00">+</text>
</g>
<!-- 1152625911+&#45;&gt;1152625911 -->
<g id="edge2" class="edge">
<title>1152625911+&#45;&gt;1152625911</title>
<path fill="none" stroke="black" d="M646.83,-96.5C654.53,-96.5 663.25,-96.5 672.05,-96.5"/>
<polygon fill="black" stroke="black" points="671.77,-100 681.77,-96.5 671.77,-93 671.77,-100"/>
</g>
<!-- 1709440272 -->
<g id="node5" class="node">
<title>1709440272</title>
<polygon fill="none" stroke="black" points="458.38,-106.5 458.38,-158.5 551.62,-158.5 551.62,-106.5 458.38,-106.5"/>
<text text-anchor="middle" x="505" y="-141.2" font-family="Times,serif" font-size="14.00"> </text>
<polyline fill="none" stroke="black" points="458.38,-132.5 551.62,-132.5"/>
<text text-anchor="middle" x="505" y="-115.2" font-family="Times,serif" font-size="14.00">value 0,1025</text>
</g>
<!-- 1709440272&#45;&gt;1152625911+ -->
<g id="edge7" class="edge">
<title>1709440272&#45;&gt;1152625911+</title>
<path fill="none" stroke="black" d="M551.43,-117.96C562.39,-114.46 573.91,-110.77 584.25,-107.46"/>
<polygon fill="black" stroke="black" points="585.07,-110.55 593.53,-104.17 582.94,-103.88 585.07,-110.55"/>
</g>
<!-- 1709440272+ -->
<g id="node6" class="node">
<title>1709440272+</title>
<ellipse fill="none" stroke="black" cx="390.5" cy="-132.5" rx="27" ry="18.38"/>
<text text-anchor="middle" x="390.5" y="-128.2" font-family="Times,serif" font-size="14.00">+</text>
</g>
<!-- 1709440272+&#45;&gt;1709440272 -->
<g id="edge3" class="edge">
<title>1709440272+&#45;&gt;1709440272</title>
<path fill="none" stroke="black" d="M417.88,-132.5C426.84,-132.5 437.23,-132.5 447.63,-132.5"/>
<polygon fill="black" stroke="black" points="447.41,-136 457.41,-132.5 447.41,-129 447.41,-136"/>
</g>
<!-- 103135770 -->
<g id="node7" class="node">
<title>103135770</title>
<polygon fill="none" stroke="black" points="230.88,-142.5 230.88,-194.5 324.88,-194.5 324.88,-142.5 230.88,-142.5"/>
<text text-anchor="middle" x="277.88" y="-177.2" font-family="Times,serif" font-size="14.00"> </text>
<polyline fill="none" stroke="black" points="230.88,-168.5 324.88,-168.5"/>
<text text-anchor="middle" x="277.88" y="-151.2" font-family="Times,serif" font-size="14.00">value 0,2355</text>
</g>
<!-- 103135770&#45;&gt;1709440272+ -->
<g id="edge8" class="edge">
<title>103135770&#45;&gt;1709440272+</title>
<path fill="none" stroke="black" d="M324.83,-153.55C335.01,-150.23 345.62,-146.78 355.24,-143.65"/>
<polygon fill="black" stroke="black" points="356.17,-146.7 364.6,-140.28 354,-140.05 356.17,-146.7"/>
</g>
<!-- 103135770* -->
<g id="node8" class="node">
<title>103135770*</title>
<ellipse fill="none" stroke="black" cx="165.25" cy="-168.5" rx="27" ry="18.38"/>
<text text-anchor="middle" x="165.25" y="-164.2" font-family="Times,serif" font-size="14.00">*</text>
</g>
<!-- 103135770*&#45;&gt;103135770 -->
<g id="edge4" class="edge">
<title>103135770*&#45;&gt;103135770</title>
<path fill="none" stroke="black" d="M192.75,-168.5C201.11,-168.5 210.69,-168.5 220.31,-168.5"/>
<polygon fill="black" stroke="black" points="220.14,-172 230.14,-168.5 220.14,-165 220.14,-172"/>
</g>
<!-- 305434127 -->
<g id="node9" class="node">
<title>305434127</title>
<polygon fill="none" stroke="black" points="4.12,-213.5 4.12,-265.5 98.12,-265.5 98.12,-213.5 4.12,-213.5"/>
<text text-anchor="middle" x="51.12" y="-248.2" font-family="Times,serif" font-size="14.00">_w0</text>
<polyline fill="none" stroke="black" points="4.12,-239.5 98.12,-239.5"/>
<text text-anchor="middle" x="51.12" y="-222.2" font-family="Times,serif" font-size="14.00">value 0,2355</text>
</g>
<!-- 305434127&#45;&gt;103135770* -->
<g id="edge9" class="edge">
<title>305434127&#45;&gt;103135770*</title>
<path fill="none" stroke="black" d="M92.92,-213.67C107.13,-204.67 122.76,-194.77 135.75,-186.55"/>
<polygon fill="black" stroke="black" points="137.11,-189.19 143.69,-180.89 133.37,-183.28 137.11,-189.19"/>
</g>
<!-- 106213971 -->
<g id="node10" class="node">
<title>106213971</title>
<polygon fill="none" stroke="black" points="3.75,-142.5 3.75,-194.5 98.5,-194.5 98.5,-142.5 3.75,-142.5"/>
<text text-anchor="middle" x="51.12" y="-177.2" font-family="Times,serif" font-size="14.00"> </text>
<polyline fill="none" stroke="black" points="3.75,-168.5 98.5,-168.5"/>
<text text-anchor="middle" x="51.12" y="-151.2" font-family="Times,serif" font-size="14.00">value 1,0000</text>
</g>
<!-- 106213971&#45;&gt;103135770* -->
<g id="edge10" class="edge">
<title>106213971&#45;&gt;103135770*</title>
<path fill="none" stroke="black" d="M98.38,-168.5C107.98,-168.5 117.99,-168.5 127.21,-168.5"/>
<polygon fill="black" stroke="black" points="127,-172 137,-168.5 127,-165 127,-172"/>
</g>
<!-- 381651370 -->
<g id="node11" class="node">
<title>381651370</title>
<polygon fill="none" stroke="black" points="228.25,-71.5 228.25,-123.5 327.5,-123.5 327.5,-71.5 228.25,-71.5"/>
<text text-anchor="middle" x="277.88" y="-106.2" font-family="Times,serif" font-size="14.00"> </text>
<polyline fill="none" stroke="black" points="228.25,-97.5 327.5,-97.5"/>
<text text-anchor="middle" x="277.88" y="-80.2" font-family="Times,serif" font-size="14.00">value &#45;0,1330</text>
</g>
<!-- 381651370&#45;&gt;1709440272+ -->
<g id="edge11" class="edge">
<title>381651370&#45;&gt;1709440272+</title>
<path fill="none" stroke="black" d="M327.4,-112.85C336.81,-115.83 346.48,-118.89 355.31,-121.68"/>
<polygon fill="black" stroke="black" points="354,-125.26 364.59,-124.94 356.11,-118.58 354,-125.26"/>
</g>
<!-- 381651370* -->
<g id="node12" class="node">
<title>381651370*</title>
<ellipse fill="none" stroke="black" cx="165.25" cy="-97.5" rx="27" ry="18.38"/>
<text text-anchor="middle" x="165.25" y="-93.2" font-family="Times,serif" font-size="14.00">*</text>
</g>
<!-- 381651370*&#45;&gt;381651370 -->
<g id="edge5" class="edge">
<title>381651370*&#45;&gt;381651370</title>
<path fill="none" stroke="black" d="M192.75,-97.5C200.3,-97.5 208.84,-97.5 217.52,-97.5"/>
<polygon fill="black" stroke="black" points="217.52,-101 227.52,-97.5 217.52,-94 217.52,-101"/>
</g>
<!-- 1920842589 -->
<g id="node13" class="node">
<title>1920842589</title>
<polygon fill="none" stroke="black" points="3,-71.5 3,-123.5 99.25,-123.5 99.25,-71.5 3,-71.5"/>
<text text-anchor="middle" x="51.12" y="-106.2" font-family="Times,serif" font-size="14.00">_w1</text>
<polyline fill="none" stroke="black" points="3,-97.5 99.25,-97.5"/>
<text text-anchor="middle" x="51.12" y="-80.2" font-family="Times,serif" font-size="14.00">value 0,0665</text>
</g>
<!-- 1920842589&#45;&gt;381651370* -->
<g id="edge12" class="edge">
<title>1920842589&#45;&gt;381651370*</title>
<path fill="none" stroke="black" d="M99.03,-97.5C108.39,-97.5 118.11,-97.5 127.1,-97.5"/>
<polygon fill="black" stroke="black" points="127,-101 137,-97.5 127,-94 127,-101"/>
</g>
<!-- 1141835755 -->
<g id="node14" class="node">
<title>1141835755</title>
<polygon fill="none" stroke="black" points="0,-0.5 0,-52.5 102.25,-52.5 102.25,-0.5 0,-0.5"/>
<text text-anchor="middle" x="51.12" y="-35.2" font-family="Times,serif" font-size="14.00"> </text>
<polyline fill="none" stroke="black" points="0,-26.5 102.25,-26.5"/>
<text text-anchor="middle" x="51.12" y="-9.2" font-family="Times,serif" font-size="14.00">value &#45;2,0000</text>
</g>
<!-- 1141835755&#45;&gt;381651370* -->
<g id="edge13" class="edge">
<title>1141835755&#45;&gt;381651370*</title>
<path fill="none" stroke="black" d="M92.92,-52.33C107.13,-61.33 122.76,-71.23 135.75,-79.45"/>
<polygon fill="black" stroke="black" points="133.37,-82.72 143.69,-85.11 137.11,-76.81 133.37,-82.72"/>
</g>
<!-- 1743446803 -->
<g id="node15" class="node">
<title>1743446803</title>
<polygon fill="none" stroke="black" points="453.5,-35.5 453.5,-87.5 556.5,-87.5 556.5,-35.5 453.5,-35.5"/>
<text text-anchor="middle" x="505" y="-70.2" font-family="Times,serif" font-size="14.00">&#45;b</text>
<polyline fill="none" stroke="black" points="453.5,-61.5 556.5,-61.5"/>
<text text-anchor="middle" x="505" y="-44.2" font-family="Times,serif" font-size="14.00">value &#45;0,0000</text>
</g>
<!-- 1743446803&#45;&gt;1152625911+ -->
<g id="edge14" class="edge">
<title>1743446803&#45;&gt;1152625911+</title>
<path fill="none" stroke="black" d="M556.33,-77.16C565.73,-80.08 575.35,-83.08 584.13,-85.81"/>
<polygon fill="black" stroke="black" points="582.76,-89.36 593.35,-88.99 584.84,-82.67 582.76,-89.36"/>
</g>
</g>
</svg>
