<?xml version="1.0" encoding="UTF-8" standalone="no"?>
<!DOCTYPE svg PUBLIC "-//W3C//DTD SVG 1.1//EN"
 "http://www.w3.org/Graphics/SVG/1.1/DTD/svg11.dtd">
<!-- Generated by graphviz version 12.2.1 (20241206.2353)
 -->
<!-- Pages: 1 -->
<svg width="510pt" height="98pt"
 viewBox="0.00 0.00 509.87 98.00" xmlns="http://www.w3.org/2000/svg" xmlns:xlink="http://www.w3.org/1999/xlink">
<g id="graph0" class="graph" transform="scale(1 1) rotate(0) translate(4 94)">
<polygon fill="white" stroke="none" points="-4,4 -4,-94 505.87,-94 505.87,4 -4,4"/>
<!-- 4463974176 -->
<g id="node1" class="node">
<title>4463974176</title>
<polygon fill="none" stroke="black" points="340.87,-27 340.87,-63 501.87,-63 501.87,-27 340.87,-27"/>
<text text-anchor="middle" x="380.74" y="-40.2" font-family="Times,serif" font-size="14.00">data 6.0000</text>
<polyline fill="none" stroke="black" points="420.62,-27.5 420.62,-63"/>
<text text-anchor="middle" x="461.24" y="-40.2" font-family="Times,serif" font-size="14.00">grad 0.0000</text>
</g>
<!-- 4463974176Add0 -->
<g id="node2" class="node">
<title>4463974176Add0</title>
<ellipse fill="none" stroke="black" cx="227.42" cy="-45" rx="77.45" ry="18"/>
<text text-anchor="middle" x="227.42" y="-39.95" font-family="Times,serif" font-size="14.00">4463974176Add0</text>
</g>
<!-- 4463974176Add0&#45;&gt;4463974176 -->
<g id="edge1" class="edge">
<title>4463974176Add0&#45;&gt;4463974176</title>
<path fill="none" stroke="black" d="M305.11,-45C313.06,-45 321.19,-45 329.28,-45"/>
<polygon fill="black" stroke="black" points="329.14,-48.5 339.14,-45 329.14,-41.5 329.14,-48.5"/>
</g>
<!-- 4464018672 -->
<g id="node3" class="node">
<title>4464018672</title>
<ellipse fill="none" stroke="black" cx="56.98" cy="-72" rx="56.98" ry="18"/>
<text text-anchor="middle" x="56.98" y="-66.95" font-family="Times,serif" font-size="14.00">4464018672</text>
</g>
<!-- 4464018672&#45;&gt;4463974176Add0 -->
<g id="edge2" class="edge">
<title>4464018672&#45;&gt;4463974176Add0</title>
<path fill="none" stroke="black" d="M108.52,-63.9C122.11,-61.72 137.1,-59.32 151.7,-56.98"/>
<polygon fill="black" stroke="black" points="151.95,-60.48 161.27,-55.44 150.85,-53.57 151.95,-60.48"/>
</g>
<!-- 4464019392 -->
<g id="node4" class="node">
<title>4464019392</title>
<ellipse fill="none" stroke="black" cx="56.98" cy="-18" rx="56.98" ry="18"/>
<text text-anchor="middle" x="56.98" y="-12.95" font-family="Times,serif" font-size="14.00">4464019392</text>
</g>
<!-- 4464019392&#45;&gt;4463974176Add0 -->
<g id="edge3" class="edge">
<title>4464019392&#45;&gt;4463974176Add0</title>
<path fill="none" stroke="black" d="M108.52,-26.1C122.11,-28.28 137.1,-30.68 151.7,-33.02"/>
<polygon fill="black" stroke="black" points="150.85,-36.43 161.27,-34.56 151.95,-29.52 150.85,-36.43"/>
</g>
</g>
</svg>
