<?xml version="1.0" encoding="UTF-8" standalone="no"?>
<!DOCTYPE svg PUBLIC "-//W3C//DTD SVG 1.1//EN"
 "http://www.w3.org/Graphics/SVG/1.1/DTD/svg11.dtd">
<!-- Generated by graphviz version 12.2.1 (20241206.2353)
 -->
<!-- Pages: 1 -->
<svg width="510pt" height="45pt"
 viewBox="0.00 0.00 509.87 45.00" xmlns="http://www.w3.org/2000/svg" xmlns:xlink="http://www.w3.org/1999/xlink">
<g id="graph0" class="graph" transform="scale(1 1) rotate(0) translate(4 41)">
<polygon fill="white" stroke="none" points="-4,4 -4,-41 505.87,-41 505.87,4 -4,4"/>
<!-- 4463974976 -->
<g id="node1" class="node">
<title>4463974976</title>
<polygon fill="none" stroke="black" points="340.87,-0.5 340.87,-36.5 501.87,-36.5 501.87,-0.5 340.87,-0.5"/>
<text text-anchor="middle" x="380.74" y="-13.7" font-family="Times,serif" font-size="14.00">data 5.0000</text>
<polyline fill="none" stroke="black" points="420.62,-1 420.62,-36.5"/>
<text text-anchor="middle" x="461.24" y="-13.7" font-family="Times,serif" font-size="14.00">grad 0.0000</text>
</g>
<!-- 4463974976Add0 -->
<g id="node2" class="node">
<title>4463974976Add0</title>
<ellipse fill="none" stroke="black" cx="227.42" cy="-18.5" rx="77.45" ry="18"/>
<text text-anchor="middle" x="227.42" y="-13.45" font-family="Times,serif" font-size="14.00">4463974976Add0</text>
</g>
<!-- 4463974976Add0&#45;&gt;4463974976 -->
<g id="edge1" class="edge">
<title>4463974976Add0&#45;&gt;4463974976</title>
<path fill="none" stroke="black" d="M305.11,-18.5C313.06,-18.5 321.19,-18.5 329.28,-18.5"/>
<polygon fill="black" stroke="black" points="329.14,-22 339.14,-18.5 329.14,-15 329.14,-22"/>
</g>
<!-- 4464020880 -->
<g id="node3" class="node">
<title>4464020880</title>
<ellipse fill="none" stroke="black" cx="56.98" cy="-18.5" rx="56.98" ry="18"/>
<text text-anchor="middle" x="56.98" y="-13.45" font-family="Times,serif" font-size="14.00">4464020880</text>
</g>
<!-- 4464020880&#45;&gt;4463974976Add0 -->
<g id="edge2" class="edge">
<title>4464020880&#45;&gt;4463974976Add0</title>
<path fill="none" stroke="black" d="M114.07,-18.5C121.9,-18.5 130.09,-18.5 138.34,-18.5"/>
<polygon fill="black" stroke="black" points="138.07,-22 148.07,-18.5 138.07,-15 138.07,-22"/>
</g>
</g>
</svg>
